<?xml version="1.0" standalone="no" ?>
<!DOCTYPE svg PUBLIC "-//W3C//DTD SVG 1.1//EN" "http://www.w3.org/Graphics/SVG/1.1/DTD/svg11.dtd">
<svg width="563px" height="600px" xmlns="http://www.w3.org/2000/svg" version="1.1" >
	<circle cx="543" cy="142" r="1.02564" fill="rgb(95,95,95)" />
	<circle cx="275" cy="500" r="1.36986" fill="rgb(46,46,46)" />
	<circle cx="128" cy="176" r="0.938967" fill="rgb(113,113,113)" />
	<circle cx="264" cy="5" r="1.11732" fill="rgb(79,79,79)" />
	<circle cx="555" cy="176" r="1.02041" fill="rgb(96,96,96)" />
	<circle cx="144" cy="590" r="1.90476" fill="rgb(5,5,5)" />
	<circle cx="407" cy="301" r="0.809717" fill="rgb(147,147,147)" />
	<circle cx="323" cy="268" r="0.921659" fill="rgb(117,117,117)" />
	<circle cx="223" cy="548" r="1.51515" fill="rgb(32,32,32)" />
	<circle cx="534" cy="40" r="1.04712" fill="rgb(91,91,91)" />
	<circle cx="531" cy="351" r="0.675676" fill="rgb(196,196,196)" />
	<circle cx="516" cy="137" r="0.854701" fill="rgb(134,134,134)" />
	<circle cx="398" cy="264" r="1.04167" fill="rgb(92,92,92)" />
	<circle cx="23" cy="376" r="0.75188" fill="rgb(166,166,166)" />
	<circle cx="71" cy="309" r="1" fill="rgb(100,100,100)" />
	<circle cx="373" cy="432" r="0.97561" fill="rgb(105,105,105)" />
	<circle cx="211" cy="176" r="0.980392" fill="rgb(104,104,104)" />
	<circle cx="340" cy="250" r="0.961538" fill="rgb(108,108,108)" />
	<circle cx="52" cy="265" r="0.925926" fill="rgb(116,116,116)" />
	<circle cx="64" cy="452" r="1.23457" fill="rgb(62,62,62)" />
	<circle cx="381" cy="223" r="0.790514" fill="rgb(153,153,153)" />
	<circle cx="100" cy="393" r="0.934579" fill="rgb(114,114,114)" />
	<circle cx="343" cy="347" r="0.909091" fill="rgb(120,120,120)" />
	<circle cx="78" cy="91" r="0.796813" fill="rgb(151,151,151)" />
	<circle cx="78" cy="585" r="1.88679" fill="rgb(6,6,6)" />
	<circle cx="285" cy="544" r="1.81818" fill="rgb(10,10,10)" />
	<circle cx="225" cy="123" r="1.03627" fill="rgb(93,93,93)" />
	<circle cx="249" cy="161" r="0.913242" fill="rgb(119,119,119)" />
	<circle cx="134" cy="107" r="0.952381" fill="rgb(110,110,110)" />
	<circle cx="499" cy="59" r="1.1236" fill="rgb(78,78,78)" />
	<circle cx="38" cy="547" r="1.83486" fill="rgb(9,9,9)" />
	<circle cx="473" cy="368" r="0.668896" fill="rgb(199,199,199)" />
	<circle cx="333" cy="557" r="1.51515" fill="rgb(32,32,32)" />
	<circle cx="438" cy="7" r="1.22699" fill="rgb(63,63,63)" />
	<circle cx="188" cy="309" r="1.15607" fill="rgb(73,73,73)" />
	<circle cx="325" cy="589" r="1.81818" fill="rgb(10,10,10)" />
	<circle cx="25" cy="233" r="0.796813" fill="rgb(151,151,151)" />
	<circle cx="20" cy="469" r="1.20482" fill="rgb(66,66,66)" />
	<circle cx="45" cy="34" r="0.78125" fill="rgb(156,156,156)" />
	<circle cx="166" cy="380" r="1.29032" fill="rgb(55,55,55)" />
	<circle cx="388" cy="391" r="0.740741" fill="rgb(170,170,170)" />
	<circle cx="543" cy="281" r="0.671141" fill="rgb(198,198,198)" />
	<circle cx="438" cy="455" r="1.18343" fill="rgb(69,69,69)" />
	<circle cx="156" cy="264" r="1.18343" fill="rgb(69,69,69)" />
	<circle cx="177" cy="582" r="1.90476" fill="rgb(5,5,5)" />
	<circle cx="514" cy="550" r="1.52672" fill="rgb(31,31,31)" />
	<circle cx="527" cy="454" r="0.83682" fill="rgb(139,139,139)" />
	<circle cx="205" cy="246" r="1" fill="rgb(100,100,100)" />
	<circle cx="89" cy="543" r="1.86916" fill="rgb(7,7,7)" />
	<circle cx="174" cy="196" r="0.990099" fill="rgb(102,102,102)" />
	<circle cx="310" cy="440" r="0.921659" fill="rgb(117,117,117)" />
	<circle cx="222" cy="65" r="0.716846" fill="rgb(179,179,179)" />
	<circle cx="488" cy="510" r="1.44928" fill="rgb(38,38,38)" />
	<circle cx="282" cy="322" r="0.787402" fill="rgb(154,154,154)" />
	<circle cx="123" cy="311" r="1.0989" fill="rgb(82,82,82)" />
	<circle cx="457" cy="564" r="1.50376" fill="rgb(33,33,33)" />
	<circle cx="167" cy="332" r="1.21951" fill="rgb(64,64,64)" />
	<circle cx="163" cy="142" r="0.966184" fill="rgb(107,107,107)" />
	<circle cx="258" cy="215" r="1.01523" fill="rgb(97,97,97)" />
	<circle cx="408" cy="6" r="1.25786" fill="rgb(59,59,59)" />
	<circle cx="416" cy="532" r="1.52672" fill="rgb(31,31,31)" />
	<circle cx="219" cy="500" r="1.47059" fill="rgb(36,36,36)" />
	<circle cx="12" cy="138" r="0.829876" fill="rgb(141,141,141)" />
	<circle cx="139" cy="562" r="1.92308" fill="rgb(4,4,4)" />
	<circle cx="308" cy="381" r="0.921659" fill="rgb(117,117,117)" />
	<circle cx="8" cy="555" r="1.90476" fill="rgb(5,5,5)" />
	<circle cx="538" cy="398" r="0.735294" fill="rgb(172,172,172)" />
	<circle cx="194" cy="9" r="0.826446" fill="rgb(142,142,142)" />
	<circle cx="473" cy="137" r="0.694444" fill="rgb(188,188,188)" />
	<circle cx="449" cy="274" r="0.660066" fill="rgb(203,203,203)" />
	<circle cx="537" cy="183" r="0.947867" fill="rgb(111,111,111)" />
	<circle cx="117" cy="495" r="1.10497" fill="rgb(81,81,81)" />
	<circle cx="260" cy="420" r="1.0929" fill="rgb(83,83,83)" />
	<circle cx="372" cy="299" r="0.706714" fill="rgb(183,183,183)" />
	<circle cx="557" cy="288" r="0.77821" fill="rgb(157,157,157)" />
	<circle cx="108" cy="520" r="1.88679" fill="rgb(6,6,6)" />
	<circle cx="106" cy="245" r="1.02564" fill="rgb(95,95,95)" />
	<circle cx="337" cy="85" r="0.615385" fill="rgb(225,225,225)" />
	<circle cx="185" cy="128" r="0.985222" fill="rgb(103,103,103)" />
	<circle cx="73" cy="175" r="0.854701" fill="rgb(134,134,134)" />
	<circle cx="546" cy="532" r="1.42857" fill="rgb(40,40,40)" />
	<circle cx="9" cy="589" r="1.88679" fill="rgb(6,6,6)" />
	<circle cx="546" cy="97" r="1.04712" fill="rgb(91,91,91)" />
	<circle cx="182" cy="437" r="1.35135" fill="rgb(48,48,48)" />
	<circle cx="306" cy="236" r="1.05263" fill="rgb(90,90,90)" />
	<circle cx="142" cy="38" r="0.763359" fill="rgb(162,162,162)" />
	<circle cx="28" cy="583" r="1.90476" fill="rgb(5,5,5)" />
	<circle cx="376" cy="520" r="1.05263" fill="rgb(90,90,90)" />
	<circle cx="283" cy="279" r="0.904977" fill="rgb(121,121,121)" />
	<circle cx="35" cy="132" r="0.809717" fill="rgb(147,147,147)" />
	<circle cx="228" cy="349" r="0.888889" fill="rgb(125,125,125)" />
	<circle cx="457" cy="21" r="1.20482" fill="rgb(66,66,66)" />
	<circle cx="493" cy="473" r="1.11732" fill="rgb(79,79,79)" />
	<circle cx="176" cy="480" r="1.18343" fill="rgb(69,69,69)" />
	<circle cx="197" cy="571" r="1.86916" fill="rgb(7,7,7)" />
	<circle cx="275" cy="581" r="1.83486" fill="rgb(9,9,9)" />
	<circle cx="150" cy="528" r="1.75439" fill="rgb(14,14,14)" />
	<circle cx="45" cy="499" r="1.83486" fill="rgb(9,9,9)" />
	<circle cx="530" cy="583" r="1.62602" fill="rgb(23,23,23)" />
	<circle cx="333" cy="103" r="0.680272" fill="rgb(194,194,194)" />
</svg>
